<?xml version="1.0" encoding="utf-8"?>
<!-- Generator: Adobe Illustrator 19.1.0, SVG Export Plug-In . SVG Version: 6.00 Build 0)  -->
<svg version="1.1" id="Calque_1" xmlns="http://www.w3.org/2000/svg" xmlns:xlink="http://www.w3.org/1999/xlink" x="0px" y="0px"
	 viewBox="0 0 200 200" style="enable-background:new 0 0 200 200;" xml:space="preserve">
<style type="text/css">
	.st0{fill-rule:evenodd;clip-rule:evenodd;fill:#FE405E;}
	.st1{fill-rule:evenodd;clip-rule:evenodd;fill:#BABABA;}
</style>
<path class="st0" d="M198.9,43.3c-3-15.1-14.2-26-29.3-29.3c-19.6-4.8-41.4,1.2-59.2,9.4C96.1,30,82.8,38.8,70.4,49.1
	c-20.2,17.2-37.5,38.4-48.4,62.6c-7.9,17.5-13.6,39-6.9,58c2.4,7.6,6.9,14.5,13.6,19c8.2,5.7,18.4,7.6,28.1,7.3
	c12.4-0.6,24.2-4.2,35.4-9.4V186l-1.5-1.5h-0.3l0.3,0.3c-6.6,2.4-13.6,3.9-20.6,5.1c-16,2.4-36.3-0.9-43.2-17.5
	C2.7,114.9,139-3.2,183.8,31.2h-0.3c1.5,1.5,3.3,3,4.5,4.8c3,4.2,4.8,9.4,5.7,14.2c1.5,10,0,20.2-2.4,29.6c-0.9,3-1.8,5.7-2.7,8.5
	h2.7C197.7,74.4,202.2,58.4,198.9,43.3L198.9,43.3z"/>
<path class="st1" d="M95.2,4C42.9,4,0,46,0,97.4c0,10.9,2.1,21.8,5.7,31.4c1.8-6.7,4.2-13.6,7-19.6v-0.6l0.6-0.3v-0.6
	C18.4,96.5,24.8,85.9,32,76.3c0.3-2.7,0.3-5.1,0.3-7.9c0-5.4,8.2-6.6,14.5-10c1.8-2.1,3.9-3.9,5.7-5.7c1.5-5.4-4.2-14.8-7.9-20.3
	c13.9-10.6,31.4-16.9,50.5-16.9c3,0,6,0,8.5,0.3c0.9-0.3,1.8-0.6,2.7-0.9c5.4-2.7,10.9-4.8,16.9-6.6C114.6,5.5,105.2,4,95.2,4
	L95.2,4z"/>
<path class="st1" d="M36.6,170.6c4.8,3.6,10,7,15.1,9.7c5.7,1.2,12.1,0.9,17.2,0.3c0.9-0.3,2.1-0.3,3-0.6l-4.8-4.5h2.7
	c-10.9-3.6-20.9-9.4-29.3-16.6l0,0c6.6,3.6,14.8,5.1,22.1,4.2c15.1-2.1-11.8-14.2,1.5-20.9c13-6.4,14.5-23.6,10.3-22.1
	c-4.5,1.5-14.8-2.7-22.7-8.2c-3.6,5.4-6.7,10.6-9.7,16c-6,11.5-11.8,28.1-6.3,40.8C36,169.3,36.3,170.3,36.6,170.6L36.6,170.6z"/>
<path class="st1" d="M101.9,190.5c49.3-3.3,88.6-43.5,88.9-92.8h-11.8c0,3.9-0.6,7.9-1.2,11.8l0,0c-1.8-7-5.1-13.9-12.7-19
	c-5.1-3.6-9.1-19-6-24.2c1.8-3,6.6-5.4,10.3-6.9c4.5,8.5,7.9,18.1,9.1,28.4V66.6l5.1,4.8c0.6-2.4,0.9-4.5,1.2-7
	c-4.5-11.2-10.9-21.5-19-29.9c-9.4-0.6-20.3,2.7-27.5,5.7c-3.6,1.5-7.3,3-10.6,4.8c7.3,5.4,14.2,11.8,17.2,13.3
	c3.9,2.1,9.1,19,8.2,26c-1.2,6.9-13.3,15.1-10.3,22.1c3,6.9-2.1,15.1-2.1,15.1s-5.1,23-8.2,25.7c-3,3-21.5,11.2-17.2,16.3
	c3.9,4.8,16.3-1.2,28.7-4.2c2.7-0.6,5.7-1.5,8.8-2.7c-14.2,13.3-33.2,21.8-54.1,22.4l3.3,3.3V190.5z"/>
</svg>
